<?xml version="1.0" encoding="UTF-8" standalone="no"?><!-- Generator: Gravit.io --><svg xmlns="http://www.w3.org/2000/svg" xmlns:xlink="http://www.w3.org/1999/xlink" style="isolation:isolate" viewBox="0 0 1440 312" width="1440pt" height="312pt"><defs><clipPath id="_clipPath_4Jnov7uXmTcePl8C61wuLP34jwHZoPs7"><rect width="1440" height="312"/></clipPath></defs><g clip-path="url(#_clipPath_4Jnov7uXmTcePl8C61wuLP34jwHZoPs7)"><path d=" M -18.694 249.544 C -4.879 240.085 38.976 189.203 81.306 160.15 C 112.331 138.857 148.441 117.668 176.761 104.09 C 249.069 69.423 325.246 58.635 405.549 55.605 C 430.522 54.663 471.399 55.51 510.094 61.666 C 533.611 65.407 562.478 69.468 585.852 75.302 C 779.921 128.767 878.851 240.172 891.912 251.059 C 900.665 258.356 910.369 259.545 938.882 269.241 C 987.836 292.82 1047.301 314.073 1055.549 301.059 C 1084.258 301.95 1130.241 288.343 1166.155 257.12 C 1184.112 241.509 1191.546 208.718 1204.034 164.696 C 1214.64 131.362 1235.579 85.118 1247.973 69.241 C 1267.48 44.254 1300.979 9.007 1314.64 7.12 C 1333.624 4.497 1364.857 30.965 1367.67 64.696 C 1374.1 84.841 1368.8 129.141 1355.549 172.272 C 1342.297 215.402 1322.973 242.726 1316.155 246.514 C 1309.961 249.955 1291.078 258.764 1279.791 235.908 C 1266.229 208.445 1268.63 158.785 1275.246 138.938 C 1281.306 120.756 1291.344 90.643 1320.7 82.878 C 1350.056 75.112 1389.64 91.211 1408.579 108.635 Q 1446.458 143.484 1475.246 216.211" fill="none" vector-effect="non-scaling-stroke" stroke-width="1" stroke-dasharray="12,12" stroke="rgb(0,0,0)" stroke-opacity="10000" stroke-linejoin="miter" stroke-linecap="square" stroke-miterlimit="3"/></g></svg>